<svg version="1.1" id="Layer_1" xmlns="http://www.w3.org/2000/svg" xmlns:xlink="http://www.w3.org/1999/xlink" x="0px" y="0px"
	 width="100%" viewBox="0 0 336 304" enable-background="new 0 0 336 304" xml:space="preserve">
<path fill="#000000" opacity="1.000000" stroke="none" 
	d="
M141.734436,255.429382 
	C107.908440,241.745895 87.886017,212.143387 87.843918,175.999405 
	C87.796379,135.191742 87.910667,94.383606 87.722397,53.576748 
	C87.699394,48.590309 89.034142,46.936646 94.146927,46.952435 
	C145.281067,47.110371 196.416031,47.099045 247.550308,46.966358 
	C252.440552,46.953674 254.274902,48.324715 254.253448,53.467422 
	C254.081024,94.774132 254.400497,136.083817 254.078094,177.388748 
	C253.742783,220.349564 223.082977,254.847153 180.891251,260.114380 
	C167.676102,261.764130 154.672394,260.155334 141.734436,255.429382 
M138.903061,240.564499 
	C173.748459,258.339142 215.980255,244.421768 233.979004,209.232513 
	C251.206100,175.551910 237.647781,132.852600 204.232681,115.552193 
	C169.570419,97.606079 126.940453,110.353111 109.174973,143.611465 
	C89.527809,180.392471 104.722816,222.341553 138.903061,240.564499 
M112.684090,92.612015 
	C105.410858,92.088867 101.121887,94.573471 99.399010,100.308075 
	C98.014633,104.915947 99.912750,109.948067 103.971901,112.431297 
	C109.434097,115.772850 116.397316,113.979439 119.477898,108.437653 
	C122.651794,102.727997 120.196037,96.410980 112.684090,92.612015 
M239.415817,111.890305 
	C244.385941,107.516602 243.598969,99.118767 239.821014,95.225273 
	C235.535522,90.808708 228.816910,89.592415 223.954193,92.584068 
	C218.042953,96.220802 216.126175,104.388634 219.870621,109.985367 
	C224.301987,116.608818 231.576309,117.537781 239.415817,111.890305 
z"/>
<path fill="#000000" opacity="1.000000" stroke="none" 
	d="
M153.155319,175.844116 
	C145.140411,167.818344 137.458099,159.957336 129.563202,152.315964 
	C126.774406,149.616714 126.546097,147.649490 129.584549,145.021561 
	C132.596497,142.416519 135.408920,139.528580 137.993958,136.496262 
	C140.779617,133.228577 142.855606,133.736130 145.681854,136.594452 
	C162.540710,153.644592 179.546143,170.549759 196.499893,187.506088 
	C201.680191,192.687180 206.685028,198.059769 212.090408,202.993881 
	C215.432724,206.044785 215.255432,208.191818 211.930771,210.971359 
	C209.131958,213.311264 206.554459,215.969986 204.171906,218.739548 
	C201.382111,221.982468 199.254150,222.098862 196.096283,218.876450 
	C181.996185,204.488113 167.656998,190.334061 153.155319,175.844116 
z"/>
<path fill="#000000" opacity="1.000000" stroke="none" 
	d="
M231.677765,92.881561 
	C238.867996,95.192513 241.942856,99.588020 240.729187,105.292488 
	C239.591812,110.638260 234.653488,114.546364 229.673904,114.041374 
	C224.219681,113.488258 219.770416,108.651550 219.844482,103.356026 
	C219.927032,97.455070 224.423248,93.313896 231.677765,92.881561 
z"/>
</svg>