<svg version="1.1" id="Layer_1" xmlns="http://www.w3.org/2000/svg" xmlns:xlink="http://www.w3.org/1999/xlink" x="0px" y="0px"
	 width="100%" viewBox="0 0 352 352" enable-background="new 0 0 352 352" xml:space="preserve">
<path fill="#000000" opacity="1.000000" stroke="none" 
	d="
M147.560699,279.592651 
	C115.677574,263.564209 99.347282,237.789368 98.876381,202.685532 
	C98.326546,161.697586 98.742516,120.696602 98.755562,79.701279 
	C98.757744,72.866463 98.822609,72.828918 105.822540,72.827995 
	C156.483444,72.821350 207.144363,72.816414 257.805267,72.819962 
	C265.259125,72.820488 265.282928,72.842583 265.283722,80.314423 
	C265.288055,121.143105 265.337067,161.971893 265.259369,202.800446 
	C265.184418,242.185104 239.743057,274.950592 201.567032,284.674500 
	C183.171951,289.359985 165.254501,287.251801 147.560699,279.592651 
M162.293869,135.841888 
	C112.782616,150.277710 94.876335,210.021851 128.155182,249.745239 
	C146.460907,271.595886 176.202164,279.977112 204.247833,271.188477 
	C230.022293,263.111511 250.064514,238.244186 252.618698,211.172470 
	C257.334900,161.185211 211.599228,122.584587 162.293869,135.841888 
M246.718262,139.608994 
	C251.820526,137.292953 254.873428,133.042236 254.602173,128.631821 
	C254.322922,124.090927 250.567886,119.521133 246.246658,118.463341 
	C241.405151,117.278183 236.592255,119.010307 233.967880,123.069618 
	C231.600464,126.731483 231.467087,130.664886 233.563660,134.435226 
	C236.259903,139.283966 240.644348,140.671997 246.718262,139.608994 
M130.282852,138.872650 
	C136.569214,134.707306 135.985031,124.654861 131.483826,120.339401 
	C125.920181,115.005333 118.697029,114.913628 113.284698,120.291985 
	C108.744240,124.803947 108.212257,131.655716 112.017807,136.609283 
	C116.461853,142.393967 122.698433,143.356567 130.282852,138.872650 
z"/>
<path fill="#000000" opacity="1.000000" stroke="none" 
	d="
M211.807098,160.041718 
	C216.209534,164.087540 220.230331,168.064255 224.320602,171.968155 
	C226.349594,173.904694 226.111176,175.514420 224.192963,177.429947 
	C201.329910,200.260803 178.489243,223.114197 155.713074,246.031662 
	C153.488098,248.270447 151.925735,247.973145 149.948486,245.859818 
	C147.105042,242.820633 144.250610,239.750015 141.084641,237.065796 
	C137.749634,234.238251 137.794891,232.176804 140.967819,229.069809 
	C154.534256,215.785294 167.866196,202.261337 181.286957,188.828003 
	C189.762939,180.344086 198.227203,171.848282 206.741745,163.403214 
	C208.122986,162.033218 209.221619,160.189163 211.807098,160.041718 
z"/>
<path fill="#000000" opacity="1.000000" stroke="none" 
	d="
M123.746918,139.309296 
	C117.936462,139.750229 114.413109,137.240631 112.568405,132.302292 
	C111.067207,128.283539 112.075958,124.631538 115.105247,121.816940 
	C118.385674,118.769012 122.382225,117.661201 126.609131,119.786629 
	C130.828201,121.908127 133.311432,125.553993 132.786041,130.269379 
	C132.242493,135.147949 129.261536,138.400406 123.746918,139.309296 
z"/>
</svg>