<?xml version="1.0" encoding="iso-8859-1"?>
<!-- Uploaded to: SVG Repo, www.svgrepo.com, Generator: SVG Repo Mixer Tools -->
<!DOCTYPE svg PUBLIC "-//W3C//DTD SVG 1.1//EN" "http://www.w3.org/Graphics/SVG/1.1/DTD/svg11.dtd">
<svg fill="#000000" height="800px" width="800px" version="1.1" id="Capa_1" xmlns="http://www.w3.org/2000/svg" xmlns:xlink="http://www.w3.org/1999/xlink" 
	 viewBox="0 0 271.666 271.666" xml:space="preserve">
<g>
	<path d="M253.022,136.008v-13.366c0-3.313-2.687-6-6-6h-44.689c-3.313,0-6,2.687-6,6v12.445h-21.946l-9.116-3.67l5.297-11.882
		c0.647-1.454,0.691-3.105,0.122-4.591s-1.706-2.685-3.159-3.333l-40.674-18.133c-1.453-0.648-3.104-0.691-4.591-0.123
		c-1.486,0.569-2.685,1.706-3.333,3.16l-6.141,13.775l-11.531-4.642c-0.712-0.287-1.473-0.434-2.24-0.434H86.522V91.77
		c0-3.313-2.687-6-6-6H35.833c-3.313,0-6,2.687-6,6v13.446h-4.429C11.396,105.216,0,116.612,0,130.62s11.396,25.404,25.404,25.404
		h72.455l73.125,29.438c0.712,0.287,1.473,0.434,2.24,0.434h73.037c14.008,0,25.404-11.396,25.404-25.404
		C271.666,148.826,263.758,138.977,253.022,136.008z M246.262,173.896h-71.875l-73.124-29.438c-0.713-0.287-1.474-0.434-2.241-0.434
		H25.404c-7.392,0-13.404-6.013-13.404-13.404s6.013-13.404,13.404-13.404h72.455l73.125,29.438c0.712,0.287,1.473,0.434,2.24,0.434
		h73.037c7.392,0,13.404,6.013,13.404,13.404S253.653,173.896,246.262,173.896z M208.333,128.643h32.689v6.445h-32.689V128.643z
		 M127.451,106.883l29.714,13.247l-3.034,6.804l-30.199-12.157L127.451,106.883z M41.833,97.77h32.689v7.446H41.833V97.77z"/>
	<path d="M25.531,121.318c-5.13,0-9.303,4.173-9.303,9.302c0,5.129,4.173,9.302,9.303,9.302c5.129,0,9.302-4.173,9.302-9.302
		C34.833,125.491,30.66,121.318,25.531,121.318z M25.531,133.318c-1.488,0-2.698-1.21-2.698-2.698s1.21-2.698,2.698-2.698
		c1.487,0,2.697,1.21,2.697,2.698S27.019,133.318,25.531,133.318z"/>
	<path d="M245.931,151.19c-5.129,0-9.302,4.173-9.302,9.302c0,5.129,4.173,9.302,9.302,9.302c5.13,0,9.303-4.173,9.303-9.302
		C255.233,155.363,251.061,151.19,245.931,151.19z M245.931,163.19c-1.487,0-2.697-1.21-2.697-2.698s1.21-2.698,2.697-2.698
		c1.488,0,2.698,1.21,2.698,2.698S247.419,163.19,245.931,163.19z"/>
</g>
</svg>