<svg version="1.1" id="Layer_1" xmlns="http://www.w3.org/2000/svg" xmlns:xlink="http://www.w3.org/1999/xlink" x="0px" y="0px"
	 width="100%" viewBox="0 0 112 112" enable-background="new 0 0 112 112" xml:space="preserve">
<path fill="#000000" opacity="1.000000" stroke="none" 
	d="
M64.166870,26.660591 
	C69.177750,26.577137 72.010307,28.797997 73.468849,33.142406 
	C76.058090,40.854736 78.858223,48.496201 81.454407,56.206276 
	C83.920204,63.529099 81.321838,71.649422 75.207474,76.227982 
	C69.475815,80.519943 61.754078,80.681358 55.650986,76.636795 
	C48.884384,72.152512 46.168064,64.969322 48.134052,57.138329 
	C50.286419,48.564941 53.946568,40.511120 56.617233,32.117393 
	C57.706921,28.692562 60.558929,27.424374 64.166870,26.660591 
M58.858494,46.900295 
	C49.222839,52.544922 46.796009,62.251377 52.861832,70.884789 
	C57.005199,76.781982 64.832817,79.064064 70.871536,76.135368 
	C77.853325,72.749306 81.879601,64.379356 79.745003,57.688988 
	C76.519348,47.578945 70.037834,44.064289 58.858494,46.900295 
M56.191574,40.394939 
	C56.141674,41.917843 54.621281,43.500790 56.600563,45.186092 
	C63.154259,42.754341 69.745316,42.820648 76.143074,46.718971 
	C74.696732,44.616245 74.349083,42.293076 73.580437,40.128891 
	C72.751007,37.793575 71.973419,35.433147 71.004463,33.155464 
	C68.918816,28.252836 64.934441,27.305952 60.671284,30.466299 
	C57.533779,32.792183 57.931065,36.666950 56.191574,40.394939 
z"/>
</svg>